<mxfile host="app.diagrams.net" agent="Mozilla/5.0 (X11; Linux x86_64) AppleWebKit/537.36 (KHTML, like Gecko) Chrome/130.0.0.0 Safari/537.36" version="24.8.4">
  <diagram name="Page-1" id="rmUJFnpAEcSocmMqCP4L">
    <mxGraphModel dx="1434" dy="754" grid="1" gridSize="10" guides="1" tooltips="1" connect="1" arrows="1" fold="1" page="1" pageScale="1" pageWidth="850" pageHeight="1100" math="0" shadow="0">
      <root>
        <mxCell id="0" />
        <mxCell id="1" parent="0" />
        <mxCell id="Sr1pXEGsXNwmPltZOefY-3" style="edgeStyle=orthogonalEdgeStyle;rounded=0;orthogonalLoop=1;jettySize=auto;html=1;exitX=0.5;exitY=1;exitDx=0;exitDy=0;" edge="1" parent="1" source="Sr1pXEGsXNwmPltZOefY-1" target="Sr1pXEGsXNwmPltZOefY-2">
          <mxGeometry relative="1" as="geometry" />
        </mxCell>
        <mxCell id="Sr1pXEGsXNwmPltZOefY-1" value="&lt;div style=&quot;background-color:#202020;color:#ffffff&quot;&gt;&lt;pre style=&quot;font-family:&#39;JetBrains Mono&#39;,monospace;font-size:11.0pt;&quot;&gt;&lt;span style=&quot;color:#9acd9a;&quot;&gt;AbstractAuthenticationProcessingFilter&lt;/span&gt;&lt;/pre&gt;&lt;/div&gt;" style="rounded=0;whiteSpace=wrap;html=1;" vertex="1" parent="1">
          <mxGeometry x="10" y="100" width="360" height="50" as="geometry" />
        </mxCell>
        <mxCell id="Sr1pXEGsXNwmPltZOefY-2" value="&lt;div style=&quot;background-color:#202020;color:#ffffff&quot;&gt;&lt;pre style=&quot;font-family:&#39;JetBrains Mono&#39;,monospace;font-size:11.0pt;&quot;&gt;&lt;span style=&quot;color:#9acd9a;&quot;&gt;AuthenticationManager&lt;/span&gt;&lt;/pre&gt;&lt;/div&gt;" style="rounded=0;whiteSpace=wrap;html=1;" vertex="1" parent="1">
          <mxGeometry x="42.5" y="220" width="295" height="250" as="geometry" />
        </mxCell>
        <mxCell id="Sr1pXEGsXNwmPltZOefY-4" value="Security 通常通过这个Filter来从request中提取用户的登陆信息，比如说默认的&amp;nbsp;UsernamePasswordAuthenticationFilter 用于提取username password" style="text;html=1;align=center;verticalAlign=middle;whiteSpace=wrap;rounded=0;" vertex="1" parent="1">
          <mxGeometry x="35" y="50" width="310" height="40" as="geometry" />
        </mxCell>
        <mxCell id="Sr1pXEGsXNwmPltZOefY-5" value="生产的&amp;nbsp;Authentication对象，Authentication对象包含了用户认证信息" style="text;html=1;align=center;verticalAlign=middle;whiteSpace=wrap;rounded=0;" vertex="1" parent="1">
          <mxGeometry x="200" y="170" width="230" height="40" as="geometry" />
        </mxCell>
        <mxCell id="Sr1pXEGsXNwmPltZOefY-6" value="通常是ProviderManager" style="text;html=1;align=center;verticalAlign=middle;whiteSpace=wrap;rounded=0;" vertex="1" parent="1">
          <mxGeometry x="115" y="250" width="150" height="40" as="geometry" />
        </mxCell>
        <mxCell id="Sr1pXEGsXNwmPltZOefY-14" style="edgeStyle=orthogonalEdgeStyle;rounded=0;orthogonalLoop=1;jettySize=auto;html=1;exitX=0.5;exitY=1;exitDx=0;exitDy=0;" edge="1" parent="1" source="Sr1pXEGsXNwmPltZOefY-7" target="Sr1pXEGsXNwmPltZOefY-13">
          <mxGeometry relative="1" as="geometry" />
        </mxCell>
        <mxCell id="Sr1pXEGsXNwmPltZOefY-7" value="&lt;div style=&quot;background-color: rgb(32, 32, 32); color: rgb(255, 255, 255);&quot;&gt;&lt;pre style=&quot;font-family:&#39;JetBrains Mono&#39;,monospace;font-size:11.0pt;&quot;&gt;&lt;span style=&quot;color:#9acd9a;&quot;&gt;AuthenticationProvider&lt;/span&gt;&lt;/pre&gt;&lt;/div&gt;" style="rounded=0;whiteSpace=wrap;html=1;" vertex="1" parent="1">
          <mxGeometry x="87.5" y="390" width="205" height="40" as="geometry" />
        </mxCell>
        <mxCell id="Sr1pXEGsXNwmPltZOefY-13" value="" style="verticalLabelPosition=bottom;verticalAlign=top;html=1;shape=mxgraph.basic.arc;startAngle=0.3;endAngle=0.1;" vertex="1" parent="1">
          <mxGeometry x="140" y="490" width="100" height="100" as="geometry" />
        </mxCell>
        <mxCell id="Sr1pXEGsXNwmPltZOefY-21" style="edgeStyle=orthogonalEdgeStyle;rounded=0;orthogonalLoop=1;jettySize=auto;html=1;exitX=1;exitY=1;exitDx=0;exitDy=0;entryX=0.5;entryY=0;entryDx=0;entryDy=0;" edge="1" parent="1" source="Sr1pXEGsXNwmPltZOefY-15" target="Sr1pXEGsXNwmPltZOefY-20">
          <mxGeometry relative="1" as="geometry" />
        </mxCell>
        <mxCell id="Sr1pXEGsXNwmPltZOefY-15" value="authenticate方法" style="text;html=1;align=center;verticalAlign=middle;whiteSpace=wrap;rounded=0;" vertex="1" parent="1">
          <mxGeometry x="160" y="525" width="60" height="30" as="geometry" />
        </mxCell>
        <mxCell id="Sr1pXEGsXNwmPltZOefY-16" value="循环执行&amp;nbsp;authenticate 只有有一个&amp;nbsp;AuthenticationProvider 通过则判定认证通过" style="text;html=1;align=center;verticalAlign=middle;whiteSpace=wrap;rounded=0;" vertex="1" parent="1">
          <mxGeometry x="230" y="516" width="190" height="39" as="geometry" />
        </mxCell>
        <mxCell id="Sr1pXEGsXNwmPltZOefY-17" value="DaoAuthenticationProvider&amp;nbsp;" style="text;html=1;align=center;verticalAlign=middle;whiteSpace=wrap;rounded=0;" vertex="1" parent="1">
          <mxGeometry x="87.5" y="440" width="60" height="30" as="geometry" />
        </mxCell>
        <mxCell id="Sr1pXEGsXNwmPltZOefY-18" value="失败" style="rounded=0;whiteSpace=wrap;html=1;" vertex="1" parent="1">
          <mxGeometry y="630" width="120" height="60" as="geometry" />
        </mxCell>
        <mxCell id="Sr1pXEGsXNwmPltZOefY-19" style="edgeStyle=orthogonalEdgeStyle;rounded=0;orthogonalLoop=1;jettySize=auto;html=1;exitX=0;exitY=0.5;exitDx=0;exitDy=0;entryX=0.442;entryY=0.07;entryDx=0;entryDy=0;entryPerimeter=0;" edge="1" parent="1" source="Sr1pXEGsXNwmPltZOefY-15" target="Sr1pXEGsXNwmPltZOefY-18">
          <mxGeometry relative="1" as="geometry" />
        </mxCell>
        <mxCell id="Sr1pXEGsXNwmPltZOefY-20" value="继续执行一些列filter" style="rounded=0;whiteSpace=wrap;html=1;" vertex="1" parent="1">
          <mxGeometry x="200" y="630" width="120" height="60" as="geometry" />
        </mxCell>
      </root>
    </mxGraphModel>
  </diagram>
</mxfile>
